<svg width="160" height="160" viewBox="0 0 160 160" fill="none" xmlns="http://www.w3.org/2000/svg">
  <!-- Akara Logo: SR-A Hot Summit / Terrain Slice -->
  <!-- Outer strata (lightest) -->
  <path d="M28 142 L44 130 L56 132 L70 116 L79 100 L80 72 L81 100 L90 116 L104 132 L116 130 L132 142"
        stroke="#C4CFC3" stroke-width="1.8" fill="none" stroke-linecap="round" stroke-linejoin="round"/>
  <!-- Middle strata -->
  <path d="M24 136 L42 122 L54 125 L68 108 L78 90 L80 55 L82 90 L92 108 L106 125 L118 122 L136 136"
        stroke="#8BA88A" stroke-width="2" fill="none" stroke-linecap="round" stroke-linejoin="round"/>
  <!-- Inner strata -->
  <path d="M34 130 L46 120 L56 122 L68 106 L76 88 L80 50 L84 88 L92 106 L104 122 L114 120 L126 130"
        stroke="#6B8A5E" stroke-width="2" fill="none" opacity=".6" stroke-linecap="round" stroke-linejoin="round"/>
  <!-- Main ridge (darkest) -->
  <path d="M18 130 L38 114 L52 118 L66 98 L76 78 L80 28 L84 78 L94 98 L108 118 L122 114 L142 130"
        stroke="#4A6741" stroke-width="3" fill="none" stroke-linecap="round" stroke-linejoin="round"/>
  <!-- Survey crossbar -->
  <line x1="62" y1="106" x2="106" y2="106" stroke="#C4A34A" stroke-width="1.8" stroke-dasharray="5 4"/>
  <!-- Summit marker -->
  <circle cx="80" cy="24" r="6" stroke="#4A6741" stroke-width="2.5" fill="none"/>
  <circle cx="80" cy="24" r="2" fill="#4A6741"/>
</svg>
