<svg xmlns="http://www.w3.org/2000/svg" xmlns:xlink="http://www.w3.org/1999/xlink" viewBox="0 0 1054.98 253.55"><defs><clipPath id="a"><rect x="-1101.56" y="-418.1" width="993.77" height="459.24" fill="none"/></clipPath><radialGradient id="b" cx="-397.58" cy="297.97" r="421.77" gradientTransform="translate(608.19 -97.77) scale(3.09 0.55)" gradientUnits="userSpaceOnUse"><stop offset="0" stop-color="#aabdff"/><stop offset="0.12" stop-color="#acc0ff" stop-opacity="0.77"/><stop offset="0.25" stop-color="#adc3ff" stop-opacity="0.57"/><stop offset="0.37" stop-color="#aec6ff" stop-opacity="0.39"/><stop offset="0.5" stop-color="#afc8ff" stop-opacity="0.25"/><stop offset="0.62" stop-color="#b0caff" stop-opacity="0.14"/><stop offset="0.75" stop-color="#b1cbff" stop-opacity="0.06"/><stop offset="0.87" stop-color="#b1ccff" stop-opacity="0.02"/><stop offset="1" stop-color="#b1ccff" stop-opacity="0"/></radialGradient></defs><g clip-path="url(#a)"><ellipse cx="-620.41" cy="66.41" rx="1409.06" ry="245.19" fill="url(#b)"/></g><path d="M345.78,95.48,321.56,76.34h0l-2.74-2.17-.05,0-.41-.31c-3.43-2.34-20.44-16-32-25.45l-.25-.19c-8.46-6.08-28.46-12.27-43.63,7.75l-.19.27c-4.81,7.31-33.05,51.19-43.81,67.93-10.76-16.74-39-60.62-43.81-67.93l-.19-.27c-15.17-20-35.17-13.82-43.63-7.75l-.25.19c-11.53,9.42-28.54,23.11-32,25.45l-.37.28-.16.1L51.67,95l-.56.51c-6.13,6.58-14.68,23.27-3.17,39.32C51.75,140.11,59,147,70.68,147c5.53,0,12.08-1.54,19.74-5.51,4.74-2.45,22-16.58,30.78-23.91l48.4,74.08c1.35,2.54,11,19.62,28.29,19.62,17.51,0,27.18-15,28-16.36l22.82-35.49,27-41.84c8.81,7.33,26,21.45,30.76,23.9,7.67,4,14.21,5.51,19.74,5.51,11.73,0,18.93-6.9,22.74-12.2C360.47,118.75,351.91,102.06,345.78,95.48ZM250.65,61.9c12.49-16.34,27.37-7,29.49-5.59,8.77,7.17,15.34,12.54,20.31,16.53a23.61,23.61,0,0,0-3.08,1l-.68.33-.36.19a26.24,26.24,0,0,0-3.43,1.92,22.79,22.79,0,0,0-7.3,7.13c-2.71,4.24-15.33,23.87-15.33,23.87L267.86,111l0,0L240.62,153.4c-5.79,4.23-11,6-15.39,5.3a11.79,11.79,0,0,1-7.39-4.48l-13.26-20.87C212.53,121,245.15,70.27,250.65,61.9ZM85.78,132.53c-13.27,6.87-23,5.69-29.63-3.61-8.93-12.45.52-24.42,2.14-26.31L83,83c1.82-.57,7.35-1.94,12.45.09l.1,0a22.66,22.66,0,0,1,5.21,3.34,16.4,16.4,0,0,1,1.48,1.64c.17.23.34.46.51.72l2.31,3.61,10.58,16.57C104.64,118.23,89.13,130.8,85.78,132.53Zm131.56,57.09c-.07.11-7.26,11.57-19.45,11.57-12,0-19.34-14.21-19.41-14.34l-.13-.25L129,111.06l0,0-2.41-3.74s-10.26-16-14.26-22.21l-.61-1a20.66,20.66,0,0,0-1.33-2,22.38,22.38,0,0,0-4.12-4.26A26.85,26.85,0,0,0,99.85,74l-.33-.16A23.81,23.81,0,0,0,96.94,73l-.41-.13c5-4,11.55-9.36,20.33-16.54,2.19-1.5,17-10.71,29.49,5.59,6.24,9.5,47.4,73.52,47.82,74.17l15.18,23.61a1.86,1.86,0,0,0,.14.21,21.94,21.94,0,0,0,14,8.85,21.53,21.53,0,0,0,3.76.32,23.54,23.54,0,0,0,3.44-.26Zm123.4-60.7c-6.67,9.3-16.36,10.48-29.63,3.62-3.35-1.74-18.86-14.31-29.89-23.49L293.81,89.5l.14-.23a15.14,15.14,0,0,1,3.56-3.91,31.54,31.54,0,0,1,3.8-2.19l0,0,.35-.13.46-.17.38-.12a20.61,20.61,0,0,1,11.32.29l24.76,19.6C340.28,104.54,349.75,116.37,340.74,128.92Z" fill="#fafafa"/><path d="M477.51,131.18v34.91a25.26,25.26,0,0,0,.83,6.77c1.64,4.93,6.16,7.4,11.91,6,2.05-.41,2.46.21,2.67,2.26s.82,6.37,1.23,9.65c.2,1.23.2,1.44-.82,1.64-6.37.62-12.53,1.24-18.69-1s-11.91-9.45-13.76-17.66a54.85,54.85,0,0,1-1.23-14.17c0-19.72-.21-39.43,0-59.15A37.36,37.36,0,0,0,458,88.66c-2.46-7.39-7.8-11.5-16.42-12.11a26.46,26.46,0,0,0-8,.61A17.74,17.74,0,0,0,418.78,93.8c-.21,2.67-.21,5.54-.21,8.21,0,1.65.41,1.85,1.85,1.85h13.15c1.64,0,2.05.62,2.05,2.26a62,62,0,0,0,0,8.83c0,1.64-.41,2-2.05,2H420.83c-1.85-.2-2.26.42-2.26,2.26v56.48c0,1.85-.2,2.67-2.46,2.67H402.76c-1.85,0-2.26-.62-2.26-2.26.21-18.48,0-37.17,0-55.65,0-3.5,0-3.5-3.49-3.5h-8.83c-1,0-1.44-.2-1.44-1.43s-.2-6.78-.2-10.07c0-1.84.61-1.64,1.84-1.64h10.27c1.44.21,2.06-.2,2.06-1.85a43,43,0,0,1,.82-12.52c3.9-14.59,13.76-22.8,27.93-25.68a50.82,50.82,0,0,1,27.11,1.44c12.32,4.31,18.27,13.56,20.33,25.88a83.43,83.43,0,0,1,.61,16Z" fill="#fafafa"/><path d="M565.62,163c-12.12,9.85-25.67,11.09-40,7.8S507.7,160.54,505.86,149a62.31,62.31,0,0,1-.62-8.83c0-11.29,0-22.59-.21-33.88,0-1.85.62-2.26,2.47-2.26h13.35c1.85,0,2.26.61,2.26,2.46v27.52a53,53,0,0,0,1.23,11.3,14.4,14.4,0,0,0,12.32,11.5,39.77,39.77,0,0,0,14.79-.21c7.8-1.85,12.52-7.19,13.76-16a27.41,27.41,0,0,0,.61-5.75c0-9.65,0-19.3-.2-29,0-1.64.61-2,2.26-2h14c1.23,0,1.85.21,1.85,1.64,0,21.77.2,43.34-.21,64.9s-13.76,34.91-34.29,37c-10.89,1.23-21.57.2-31.42-5.14A34,34,0,0,1,502.57,187c-.82-1.44-.41-1.85,1-2.47l12.73-4.72c1-.41,1.64-.62,2.26.61,5.13,10.89,16,14.17,27.11,12.94s18.48-8.21,19.71-20.33A82.45,82.45,0,0,0,565.62,163Z" fill="#fafafa"/><path d="M612.24,118.65V82.91c-.21-1.84.2-2.46,2-2.26h13.76c1.85-.2,2.26.42,2.26,2.06-.21,6.36,0,12.73-.21,19.3,0,1.44.41,2.06,2.06,1.85h18.48c1.64,0,2.05.41,2.05,1.85a68.18,68.18,0,0,0,0,9c0,1.43-.41,1.84-2.05,1.84H632.16c-1.65,0-2.06.41-2.06,2.06.21,11.29.21,22.79,0,34.09,0,4.72.82,9,5.34,11.5a14.77,14.77,0,0,0,14.58-.62c1.24-.61,2.26-2.67,3.7-2.05s1.64,2.26,2.46,3.49l3.7,5.75c.62.82.82,1.23-.2,2.05-10.48,8.22-26.91,8.84-37.59,1-7-4.93-9.85-11.91-9.85-20.33V118.65Z" fill="#fafafa"/><path d="M754.4,140.07c0,23.07-16.42,39.18-38.15,39.18-13.9,0-25.58-6.94-31.64-18.77v18.18h-7.1V69h7.39v50.13c6.21-11.54,17.74-18.19,31.35-18.19C738,100.89,754.4,116.86,754.4,140.07Zm-7.4,0c0-19.37-13.45-32.53-31.2-32.53s-31,13.16-31,32.53,13.31,32.53,31,32.53S747,159.44,747,140.07Z" fill="#fafafa"/><path d="M845.92,101.48v77.18h-7.24V160.48c-6.06,12-17.75,18.77-31.64,18.77-21.74,0-38.15-16.11-38.15-39.18S785.3,100.89,807,100.89c13.75,0,25.28,6.8,31.49,18.48V101.48Zm-7.39,38.59c0-19.37-13.31-32.53-31-32.53s-31.05,13.16-31.05,32.53,13.31,32.53,31.05,32.53S838.53,159.44,838.53,140.07Z" fill="#fafafa"/><path d="M865.74,169.35l3.4-5.92c5.91,5,16.41,9.32,27.8,9.32,16.26,0,22.77-5.77,22.77-14.49,0-22.48-51.16-5.92-51.16-36.23,0-11.68,9.75-21.14,29.27-21.14,9.76,0,20.41,3,26.47,7.54l-3.4,5.91c-6.51-4.73-14.94-7-23.21-7-15.09,0-21.74,6.21-21.74,14.5,0,23.21,51.16,6.8,51.16,36.22,0,12.57-10.79,21.14-30.46,21.14C883.92,179.25,871.8,175,865.74,169.35Z" fill="#fafafa"/><path d="M1004.14,161.81l4.28,4.88c-6.8,8.28-17.3,12.56-29.13,12.56-23.36,0-39.92-16.26-39.92-39.18s15.68-39.18,37.56-39.18c20.55,0,35.19,15.38,36.23,35.93L948,149.53c3.7,14.2,15.67,23.07,31.49,23.07C989.35,172.6,998.22,169.05,1004.14,161.81Zm-57.52-22.33c0,1.48.15,3.11.29,4.58l58.85-11.53c-2.07-13.75-13-25.14-28.83-25.14C959.19,107.39,946.62,120.7,946.62,139.48Z" fill="#fafafa"/></svg>